<svg width="65" height="64" viewBox="0 0 65 64" fill="none" xmlns="http://www.w3.org/2000/svg">
<path d="M61 0H4L9.02941 56.3684L32.5 63L55.9706 56.3684L61 0Z" fill="#0277BD"/>
<path d="M32 4V58L51.6204 52.5831L56 4H32Z" fill="#039BE5"/>
<path d="M48 13H32V19.6968H40.6154L40.0879 26.3937H32V33.0905H39.7363L39.2088 40.6244L32 42.9683V50L45.8901 45.6471L47.1209 26.3937L48 13Z" fill="white"/>
<path d="M32 13V19.8778H17.4891L17 13H32ZM24.5 26.7557L24.8261 33.6335H32V26.7557H24.5ZM25.1522 37.0724H18.6304L19.1196 46.5294L32 51V43.7783L25.3152 41.371L25.1522 37.0724Z" fill="#EEEEEE"/>
</svg>
