<svg width="1728" height="80" viewBox="0 0 1728 80" fill="none" xmlns="http://www.w3.org/2000/svg">
<g clip-path="url(#clip0_1776_26150)">
<line x1="2.18557e-08" y1="40.5" x2="147" y2="40.5" stroke="#5C6A83" stroke-opacity="0.12" stroke-dasharray="4 4"/>
<circle cx="198" cy="40.5" r="3" transform="rotate(-90 198 40.5)" fill="#5C6A83" fill-opacity="0.12"/>
<circle cx="149" cy="40.5" r="3" transform="rotate(-90 149 40.5)" fill="#5C6A83" fill-opacity="0.12"/>
<line x1="152" y1="40.5" x2="198" y2="40.5" stroke="#5C6A83" stroke-opacity="0.12"/>
<circle cx="185" cy="23" r="3" transform="rotate(-90 185 23)" fill="#5C6A83" fill-opacity="0.12"/>
<path d="M158.791 34.543L171.5 32.9969L184.791 22.543" stroke="#5C6A83" stroke-opacity="0.12"/>
<circle cx="3" cy="3" r="3" transform="matrix(0 1 1 0 182.209 55)" fill="#5C6A83" fill-opacity="0.12"/>
<path d="M159 46.457L171.709 48.0031L185 58.457" stroke="#5C6A83" stroke-opacity="0.12"/>
<line y1="-0.5" x2="147" y2="-0.5" transform="matrix(-1 4.37114e-08 4.37114e-08 1 1728 41)" stroke="#5C6A83" stroke-opacity="0.12" stroke-dasharray="4 4"/>
<circle cx="3" cy="3" r="3" transform="matrix(0 -1 -1 0 1533 43.5)" fill="#5C6A83" fill-opacity="0.12"/>
<circle cx="3" cy="3" r="3" transform="matrix(0 -1 -1 0 1582 43.5)" fill="#5C6A83" fill-opacity="0.12"/>
<line y1="-0.5" x2="46" y2="-0.5" transform="matrix(-1 4.37114e-08 4.37114e-08 1 1576 41)" stroke="#5C6A83" stroke-opacity="0.12"/>
<circle cx="3" cy="3" r="3" transform="matrix(0 -1 -1 0 1546 26)" fill="#5C6A83" fill-opacity="0.12"/>
<path d="M1569.21 34.543L1556.5 32.9969L1543.21 22.543" stroke="#5C6A83" stroke-opacity="0.12"/>
<circle cx="1542.79" cy="58" r="3" transform="rotate(90 1542.79 58)" fill="#5C6A83" fill-opacity="0.12"/>
<path d="M1569 46.457L1556.29 48.0031L1543 58.457" stroke="#5C6A83" stroke-opacity="0.12"/>
</g>
<defs>
<clipPath id="clip0_1776_26150">
<rect width="1728" height="80" fill="white"/>
</clipPath>
</defs>
</svg>
