<svg width="65" height="64" viewBox="0 0 65 64" fill="none" xmlns="http://www.w3.org/2000/svg">
<path d="M9.49561 57.5L4.37061 0H60.7456L55.6206 57.5L32.4956 64" fill="#E34F26"/>
<path d="M32.6206 59L51.2456 53.875L55.6206 4.625H32.6206" fill="#EF652A"/>
<path d="M32.6206 26H23.2456L22.6206 18.75H32.6206V11.75H14.8706L16.7456 33.125H32.6206V26ZM32.4956 44.375L24.6206 42.25L24.1206 36.625H17.1206L17.9956 47.75L32.4956 51.75V44.375Z" fill="#EBEBEB"/>
<path d="M32.4956 26V33.125H41.2456L40.3706 42.25L32.4956 44.375V51.75L46.9956 47.75L48.9956 26H32.4956ZM32.4956 11.75V18.75H49.6206L50.2456 11.75H32.4956Z" fill="white"/>
</svg>
