<svg width="33" height="16" viewBox="0 0 33 16" fill="none" xmlns="http://www.w3.org/2000/svg">
<mask id="path-1-outside-1_1805_26345" maskUnits="userSpaceOnUse" x="-3" y="-3" width="39" height="23" fill="black">
<rect fill="white" x="-3" y="-3" width="39" height="23"/>
<path d="M1.44954 10.05C0.981539 9.822 0.747539 9.408 0.747539 8.808C0.747539 8.208 0.987539 7.788 1.46754 7.548C5.58354 5.112 7.94754 3.708 8.55954 3.336C9.17154 2.964 9.53754 2.76 9.65754 2.724C9.78954 2.664 9.94554 2.634 10.1255 2.634C10.4495 2.634 10.7855 2.928 11.1335 3.516C11.3615 3.888 11.4755 4.17 11.4755 4.362C11.4755 4.542 11.4335 4.698 11.3495 4.83C11.2415 5.022 10.9955 5.244 10.6115 5.496C7.03554 7.608 5.17554 8.712 5.03154 8.808L10.6115 12.12C10.8395 12.252 11.0015 12.36 11.0975 12.444C11.3615 12.66 11.4935 12.894 11.4935 13.146C11.4935 13.386 11.3855 13.68 11.1695 14.028C10.9655 14.364 10.7795 14.604 10.6115 14.748C10.4435 14.892 10.2695 14.964 10.0895 14.964C9.84954 14.964 9.53754 14.85 9.15354 14.622L1.44954 10.05ZM14.9307 15.144C14.8347 15.348 14.7567 15.498 14.6967 15.594C14.6487 15.69 14.5587 15.78 14.4267 15.864C14.3067 15.96 14.1447 16.008 13.9407 16.008C13.7367 16.008 13.4367 15.918 13.0407 15.738C12.6447 15.558 12.3747 15.396 12.2307 15.252C12.0987 15.12 12.0327 14.97 12.0327 14.802C12.0327 14.634 12.1047 14.334 12.2487 13.902L18.0447 1.788C18.2727 1.332 18.4767 1.068 18.6567 0.995999C18.7527 0.947999 18.8907 0.923999 19.0707 0.923999C19.2627 0.923999 19.5687 1.02 19.9887 1.212C20.6367 1.524 20.9607 1.866 20.9607 2.238C20.9607 2.394 20.8767 2.694 20.7087 3.138L14.9307 15.144ZM31.5153 7.548C31.9953 7.788 32.2353 8.208 32.2353 8.808C32.2353 9.408 32.0013 9.822 31.5333 10.05L23.8473 14.622C23.2353 15.018 22.7433 15.06 22.3713 14.748C22.2033 14.604 22.0293 14.388 21.8493 14.1C21.6093 13.704 21.4893 13.416 21.4893 13.236C21.4893 13.056 21.5253 12.9 21.5973 12.768C21.7293 12.564 21.9873 12.348 22.3713 12.12L27.9693 8.808L22.3893 5.496C22.1733 5.364 22.0113 5.256 21.9033 5.172C21.6393 4.944 21.5073 4.698 21.5073 4.434C21.5073 4.194 21.6093 3.906 21.8133 3.57C22.1853 2.946 22.5333 2.634 22.8573 2.634C23.1453 2.634 23.4693 2.748 23.8293 2.976L31.5153 7.548Z"/>
</mask>
<path d="M1.44954 10.05C0.981539 9.822 0.747539 9.408 0.747539 8.808C0.747539 8.208 0.987539 7.788 1.46754 7.548C5.58354 5.112 7.94754 3.708 8.55954 3.336C9.17154 2.964 9.53754 2.76 9.65754 2.724C9.78954 2.664 9.94554 2.634 10.1255 2.634C10.4495 2.634 10.7855 2.928 11.1335 3.516C11.3615 3.888 11.4755 4.17 11.4755 4.362C11.4755 4.542 11.4335 4.698 11.3495 4.83C11.2415 5.022 10.9955 5.244 10.6115 5.496C7.03554 7.608 5.17554 8.712 5.03154 8.808L10.6115 12.12C10.8395 12.252 11.0015 12.36 11.0975 12.444C11.3615 12.66 11.4935 12.894 11.4935 13.146C11.4935 13.386 11.3855 13.68 11.1695 14.028C10.9655 14.364 10.7795 14.604 10.6115 14.748C10.4435 14.892 10.2695 14.964 10.0895 14.964C9.84954 14.964 9.53754 14.85 9.15354 14.622L1.44954 10.05ZM14.9307 15.144C14.8347 15.348 14.7567 15.498 14.6967 15.594C14.6487 15.69 14.5587 15.78 14.4267 15.864C14.3067 15.96 14.1447 16.008 13.9407 16.008C13.7367 16.008 13.4367 15.918 13.0407 15.738C12.6447 15.558 12.3747 15.396 12.2307 15.252C12.0987 15.12 12.0327 14.97 12.0327 14.802C12.0327 14.634 12.1047 14.334 12.2487 13.902L18.0447 1.788C18.2727 1.332 18.4767 1.068 18.6567 0.995999C18.7527 0.947999 18.8907 0.923999 19.0707 0.923999C19.2627 0.923999 19.5687 1.02 19.9887 1.212C20.6367 1.524 20.9607 1.866 20.9607 2.238C20.9607 2.394 20.8767 2.694 20.7087 3.138L14.9307 15.144ZM31.5153 7.548C31.9953 7.788 32.2353 8.208 32.2353 8.808C32.2353 9.408 32.0013 9.822 31.5333 10.05L23.8473 14.622C23.2353 15.018 22.7433 15.06 22.3713 14.748C22.2033 14.604 22.0293 14.388 21.8493 14.1C21.6093 13.704 21.4893 13.416 21.4893 13.236C21.4893 13.056 21.5253 12.9 21.5973 12.768C21.7293 12.564 21.9873 12.348 22.3713 12.12L27.9693 8.808L22.3893 5.496C22.1733 5.364 22.0113 5.256 21.9033 5.172C21.6393 4.944 21.5073 4.698 21.5073 4.434C21.5073 4.194 21.6093 3.906 21.8133 3.57C22.1853 2.946 22.5333 2.634 22.8573 2.634C23.1453 2.634 23.4693 2.748 23.8293 2.976L31.5153 7.548Z" fill="#5158F6"/>
<path d="M1.44954 10.05L3.08267 7.29811L2.96942 7.23091L2.85104 7.17323L1.44954 10.05ZM1.46754 7.548L2.89862 10.4102L2.99991 10.3595L3.09737 10.3018L1.46754 7.548ZM8.55954 3.336L10.2217 6.07047L10.2217 6.07047L8.55954 3.336ZM9.65754 2.724L10.5771 5.78904L10.7845 5.7268L10.9817 5.63717L9.65754 2.724ZM11.1335 3.516L8.37969 5.14583L8.39229 5.16711L8.40522 5.1882L11.1335 3.516ZM11.3495 4.83L8.64982 3.11201L8.60313 3.18537L8.5605 3.26116L11.3495 4.83ZM10.6115 5.496L12.2389 8.25133L12.304 8.21286L12.3672 8.17135L10.6115 5.496ZM5.03154 8.808L3.2565 6.14544L-0.973106 8.96518L3.39823 11.5598L5.03154 8.808ZM10.6115 12.12L8.97823 14.8718L8.99318 14.8807L9.00822 14.8894L10.6115 12.12ZM11.0975 12.444L8.99033 14.8522L9.03019 14.8871L9.07118 14.9207L11.0975 12.444ZM11.1695 14.028L8.45069 12.3404L8.44239 12.3538L8.43422 12.3673L11.1695 14.028ZM10.6115 14.748L8.52901 12.3184L10.6115 14.748ZM9.15354 14.622L10.7873 11.8705L10.7867 11.8701L9.15354 14.622ZM2.85104 7.17323C3.14196 7.31496 3.47672 7.58324 3.70884 7.99392C3.92558 8.37737 3.94754 8.69819 3.94754 8.808H-2.45246C-2.45246 9.51781 -2.3135 10.3456 -1.86276 11.1431C-1.39664 11.9678 -0.71088 12.557 0.0480373 12.9268L2.85104 7.17323ZM3.94754 8.808C3.94754 8.93242 3.92124 9.25383 3.70592 9.63064C3.47865 10.0284 3.15946 10.2797 2.89862 10.4102L0.0364551 4.68583C-0.70438 5.05625 -1.38357 5.63764 -1.85084 6.45536C-2.30616 7.25217 -2.45246 8.08358 -2.45246 8.808H3.94754ZM3.09737 10.3018C7.20228 7.87241 9.58894 6.45507 10.2217 6.07047L6.89741 0.601529C6.30614 0.960928 3.9648 2.35159 -0.162288 4.79415L3.09737 10.3018ZM10.2217 6.07047C10.5137 5.89298 10.7191 5.77267 10.851 5.69914C10.9181 5.66171 10.9434 5.64919 10.9383 5.65172C10.9353 5.65322 10.9085 5.66646 10.8645 5.68538C10.8416 5.69522 10.8073 5.70949 10.7639 5.7259C10.7221 5.74172 10.6579 5.76478 10.5771 5.78904L8.73803 -0.341044C8.27984 -0.20359 7.84116 0.0497396 7.73509 0.108861C7.50101 0.239334 7.21741 0.407018 6.89741 0.601531L10.2217 6.07047ZM10.9817 5.63717C10.6101 5.80606 10.295 5.834 10.1255 5.834V-0.566001C9.59604 -0.566001 8.96893 -0.478065 8.33337 -0.189173L10.9817 5.63717ZM10.1255 5.834C9.26227 5.834 8.70792 5.43302 8.51332 5.26274C8.3282 5.10076 8.29702 5.00614 8.37969 5.14583L13.8874 1.88617C13.6221 1.43786 13.2489 0.902239 12.7278 0.446255C12.1972 -0.0180188 11.3128 -0.566001 10.1255 -0.566001V5.834ZM8.40522 5.1882C8.46291 5.28234 8.45421 5.28233 8.42329 5.20582C8.40638 5.164 8.37334 5.07603 8.34288 4.94941C8.31318 4.82591 8.27554 4.62296 8.27554 4.362H14.6755C14.6755 3.6856 14.4882 3.13225 14.3568 2.80717C14.2119 2.44867 14.0322 2.12166 13.8619 1.8438L8.40522 5.1882ZM8.27554 4.362C8.27554 4.02709 8.36019 3.56714 8.64982 3.11201L14.0493 6.54799C14.5069 5.82886 14.6755 5.05691 14.6755 4.362H8.27554ZM8.5605 3.26116C8.65616 3.0911 8.74982 2.97102 8.81056 2.9C8.87261 2.82742 8.92035 2.78271 8.94015 2.76484C8.975 2.73339 8.95906 2.75291 8.85584 2.82065L12.3672 8.17135C12.811 7.88012 13.6282 7.30624 14.1386 6.39884L8.5605 3.26116ZM8.98423 2.74067C5.49271 4.80277 3.49699 5.98511 3.2565 6.14544L6.80658 11.4706C6.78667 11.4838 7.1692 11.2525 8.16785 10.6598C9.09479 10.1096 10.4514 9.30701 12.2389 8.25133L8.98423 2.74067ZM3.39823 11.5598L8.97823 14.8718L12.2449 9.36822L6.66485 6.05622L3.39823 11.5598ZM9.00822 14.8894C9.04402 14.9101 9.072 14.9269 9.09305 14.9398C9.11434 14.9529 9.12577 14.9604 9.129 14.9626C9.13274 14.9651 9.12283 14.9586 9.10273 14.9436C9.09231 14.9359 9.0776 14.9247 9.05942 14.9102C9.04136 14.8957 9.01789 14.8764 8.99033 14.8522L13.2048 10.0358C12.8628 9.73651 12.4749 9.5012 12.2149 9.35064L9.00822 14.8894ZM9.07118 14.9207C8.97507 14.842 8.78142 14.6622 8.60741 14.3537C8.42126 14.0237 8.29354 13.6074 8.29354 13.146H14.6935C14.6935 11.6241 13.8518 10.5629 13.1239 9.96734L9.07118 14.9207ZM8.29354 13.146C8.29354 12.7943 8.37047 12.5474 8.4088 12.4431C8.44848 12.3351 8.47698 12.2981 8.45069 12.3404L13.8884 15.7156C14.2226 15.1772 14.6935 14.2688 14.6935 13.146H8.29354ZM8.43422 12.3673C8.40718 12.4118 8.38578 12.4448 8.37016 12.4679C8.35439 12.4912 8.34681 12.5009 8.34771 12.4998C8.34833 12.499 8.36163 12.4818 8.38813 12.453C8.41414 12.4248 8.46079 12.3768 8.52901 12.3184L12.6941 17.1776C13.2448 16.7056 13.6392 16.1262 13.9049 15.6887L8.43422 12.3673ZM8.52901 12.3184C8.80292 12.0836 9.3416 11.764 10.0895 11.764V18.164C11.1975 18.164 12.0842 17.7004 12.6941 17.1776L8.52901 12.3184ZM10.0895 11.764C10.4577 11.764 10.7032 11.8471 10.7738 11.8729C10.8547 11.9024 10.8631 11.9155 10.7873 11.8705L7.51981 17.3735C8.03801 17.6812 8.96506 18.164 10.0895 18.164V11.764ZM10.7867 11.8701L3.08267 7.29811L-0.183591 12.8019L7.52041 17.3739L10.7867 11.8701ZM14.9307 15.144L12.0472 13.7563L12.0412 13.7689L12.0353 13.7814L14.9307 15.144ZM14.6967 15.594L11.9831 13.898L11.9025 14.0269L11.8345 14.1629L14.6967 15.594ZM14.4267 15.864L12.7087 13.1643L12.5628 13.2572L12.4277 13.3652L14.4267 15.864ZM12.2307 15.252L9.96795 17.5147L9.96795 17.5147L12.2307 15.252ZM12.2487 13.902L9.36208 12.5209L9.27599 12.7008L9.21291 12.8901L12.2487 13.902ZM18.0447 1.788L15.1825 0.356914L15.1701 0.381794L15.1581 0.406887L18.0447 1.788ZM18.6567 0.995999L19.8452 3.96712L19.9687 3.91769L20.0878 3.85817L18.6567 0.995999ZM19.9887 1.212L21.3769 -1.67121L21.3482 -1.68505L21.3191 -1.69832L19.9887 1.212ZM20.7087 3.138L23.5922 4.52569L23.6524 4.40045L23.7016 4.27046L20.7087 3.138ZM12.0353 13.7814C11.9998 13.8569 11.9754 13.9057 11.9611 13.9332C11.9543 13.9463 11.9521 13.9501 11.9542 13.9463C11.956 13.9431 11.9658 13.9257 11.9831 13.898L17.4103 17.29C17.5747 17.027 17.718 16.7364 17.8261 16.5066L12.0353 13.7814ZM11.8345 14.1629C12.1384 13.5551 12.5617 13.2578 12.7087 13.1643L16.1447 18.5637C16.5557 18.3022 17.159 17.8249 17.5589 17.0251L11.8345 14.1629ZM12.4277 13.3652C13.0369 12.8778 13.6566 12.808 13.9407 12.808V19.208C14.6328 19.208 15.5765 19.0422 16.4257 18.3628L12.4277 13.3652ZM13.9407 12.808C14.1188 12.808 14.2541 12.827 14.3322 12.841C14.4128 12.8553 14.4648 12.8702 14.4822 12.8755C14.5118 12.8843 14.4779 12.8762 14.3649 12.8248L11.7165 18.6512C12.1621 18.8537 13.0006 19.208 13.9407 19.208V12.808ZM14.3649 12.8248C14.305 12.7976 14.2605 12.7759 14.2291 12.7598C14.1972 12.7434 14.1847 12.7358 14.1876 12.7375C14.1894 12.7386 14.2179 12.7557 14.2644 12.79C14.3087 12.8228 14.3923 12.8881 14.4934 12.9893L9.96795 17.5147C10.5479 18.0947 11.2768 18.4513 11.7165 18.6512L14.3649 12.8248ZM14.4934 12.9893C14.6693 13.1651 14.8638 13.4167 15.0112 13.7517C15.1615 14.0932 15.2327 14.4537 15.2327 14.802H8.8327C8.8327 15.9167 9.30892 16.8557 9.96795 17.5147L14.4934 12.9893ZM15.2327 14.802C15.2327 14.8929 15.2279 14.9666 15.2233 15.0182C15.2186 15.0707 15.2131 15.1114 15.209 15.1378C15.2012 15.1883 15.1952 15.211 15.1983 15.1978C15.201 15.1868 15.2084 15.1576 15.2234 15.1069C15.2381 15.057 15.2581 14.9932 15.2845 14.9139L9.21291 12.8901C9.08559 13.272 8.8327 14.0418 8.8327 14.802H15.2327ZM15.1353 15.2831L20.9313 3.16911L15.1581 0.406887L9.36208 12.5209L15.1353 15.2831ZM20.9069 3.21908C20.9712 3.09038 20.9734 3.11074 20.9008 3.20463C20.8614 3.2556 20.7714 3.36562 20.6244 3.49424C20.4812 3.61952 20.2233 3.81588 19.8452 3.96712L17.4682 -1.97512C16.5911 -1.62426 16.0672 -1.00714 15.8366 -0.708632C15.56 -0.350745 15.3462 0.0296168 15.1825 0.356914L20.9069 3.21908ZM20.0878 3.85817C19.7873 4.00842 19.5304 4.06861 19.3805 4.09468C19.2258 4.12157 19.1155 4.124 19.0707 4.124V-2.276C18.6882 -2.276 17.9701 -2.23842 17.2256 -1.86617L20.0878 3.85817ZM19.0707 4.124C18.8627 4.124 18.7083 4.09918 18.6304 4.08415C18.5474 4.06815 18.4967 4.05254 18.4863 4.04927C18.4705 4.0443 18.5216 4.05985 18.6583 4.12232L21.3191 -1.69832C20.9102 -1.88528 20.0321 -2.276 19.0707 -2.276V4.124ZM18.6005 4.0952C18.7393 4.16203 18.6026 4.12274 18.3946 3.90328C18.15 3.64506 17.7607 3.07304 17.7607 2.238H24.1607C24.1607 -0.195644 22.1021 -1.32204 21.3769 -1.67121L18.6005 4.0952ZM17.7607 2.238C17.7607 2.1178 17.7686 2.02092 17.7757 1.95532C17.7831 1.88816 17.7917 1.83596 17.7979 1.80228C17.8097 1.73802 17.8193 1.70608 17.8162 1.71718C17.814 1.72518 17.8057 1.75333 17.7881 1.80541C17.7708 1.85651 17.7471 1.92267 17.7158 2.00554L23.7016 4.27046C23.8037 4.00055 23.9022 3.71792 23.9792 3.44282C24.038 3.23274 24.1607 2.77157 24.1607 2.238H17.7607ZM17.8252 1.75031L12.0472 13.7563L17.8142 16.5317L23.5922 4.52569L17.8252 1.75031ZM31.5153 7.548L29.8793 10.2982L29.9797 10.3579L30.0842 10.4102L31.5153 7.548ZM31.5333 10.05L30.1318 7.17323L30.0119 7.23163L29.8973 7.29979L31.5333 10.05ZM23.8473 14.622L22.2113 11.8718L22.1595 11.9026L22.1089 11.9354L23.8473 14.622ZM22.3713 14.748L20.2888 17.1776L20.3018 17.1888L20.3149 17.1998L22.3713 14.748ZM21.8493 14.1L19.1127 15.7586L19.1241 15.7774L19.1357 15.796L21.8493 14.1ZM21.5973 12.768L18.9107 11.0296L18.8455 11.1303L18.788 11.2357L21.5973 12.768ZM22.3713 12.12L20.7419 9.36591L20.7376 9.36846L22.3713 12.12ZM27.9693 8.808L29.5987 11.5621L34.2462 8.81243L29.6026 6.05622L27.9693 8.808ZM22.3893 5.496L20.7207 8.2265L20.7383 8.23725L20.756 8.24778L22.3893 5.496ZM21.9033 5.172L19.8117 7.59383L19.8739 7.64751L19.9387 7.69793L21.9033 5.172ZM21.8133 3.57L24.5486 5.23073L24.5553 5.21969L24.5619 5.20861L21.8133 3.57ZM23.8293 2.976L22.1171 5.67942L22.1549 5.70335L22.1933 5.72621L23.8293 2.976ZM30.0842 10.4102C29.8234 10.2797 29.5042 10.0284 29.2769 9.63064C29.0616 9.25383 29.0353 8.93242 29.0353 8.808H35.4353C35.4353 8.08358 35.289 7.25217 34.8337 6.45536C34.3664 5.63764 33.6872 5.05625 32.9464 4.68583L30.0842 10.4102ZM29.0353 8.808C29.0353 8.69819 29.0573 8.37737 29.274 7.99392C29.5061 7.58324 29.8409 7.31496 30.1318 7.17323L32.9348 12.9268C33.6937 12.557 34.3795 11.9678 34.8456 11.1431C35.2963 10.3456 35.4353 9.51781 35.4353 8.808H29.0353ZM29.8973 7.29979L22.2113 11.8718L25.4833 17.3722L33.1693 12.8002L29.8973 7.29979ZM22.1089 11.9354C22.0491 11.974 22.2808 11.8019 22.7471 11.7621C23 11.7405 23.3043 11.7603 23.6273 11.8613C23.9514 11.9626 24.2206 12.1225 24.4277 12.2962L20.3149 17.1998C21.1615 17.9098 22.2186 18.2305 23.2915 18.1389C24.2498 18.0571 25.0335 17.666 25.5857 17.3086L22.1089 11.9354ZM24.4538 12.3184C24.5041 12.3614 24.5406 12.3977 24.5642 12.4225C24.5879 12.4475 24.6019 12.4644 24.6068 12.4705C24.6152 12.4809 24.5997 12.4628 24.5629 12.404L19.1357 15.796C19.4061 16.2286 19.7799 16.7414 20.2888 17.1776L24.4538 12.3184ZM24.5859 12.4414C24.5133 12.3216 24.5098 12.3002 24.5332 12.3562C24.5461 12.3874 24.5793 12.4708 24.6115 12.5964C24.642 12.7153 24.6893 12.9395 24.6893 13.236H18.2893C18.2893 13.9504 18.5047 14.5278 18.6255 14.8178C18.7688 15.1618 18.9453 15.4824 19.1127 15.7586L24.5859 12.4414ZM24.6893 13.236C24.6893 13.4862 24.637 13.8778 24.4066 14.3003L18.788 11.2357C18.4136 11.9222 18.2893 12.6258 18.2893 13.236H24.6893ZM24.2839 14.5064C24.2 14.6362 24.1207 14.73 24.0649 14.7902C24.0085 14.8509 23.965 14.8891 23.944 14.9066C23.9064 14.9381 23.9162 14.9243 24.005 14.8715L20.7376 9.36846C20.2278 9.67112 19.451 10.1945 18.9107 11.0296L24.2839 14.5064ZM24.0007 14.8741L29.5987 11.5621L26.3399 6.05392L20.7419 9.36592L24.0007 14.8741ZM29.6026 6.05622L24.0226 2.74422L20.756 8.24778L26.336 11.5598L29.6026 6.05622ZM24.0579 2.7655C23.9759 2.71534 23.9183 2.6784 23.8808 2.65344C23.84 2.62623 23.8408 2.62497 23.8679 2.64607L19.9387 7.69793C20.1896 7.8931 20.4726 8.07491 20.7207 8.2265L24.0579 2.7655ZM23.9949 2.75017C24.088 2.8306 24.2672 3.00746 24.426 3.30348C24.5948 3.61812 24.7073 4.00755 24.7073 4.434H18.3073C18.3073 5.90414 19.0839 6.96529 19.8117 7.59383L23.9949 2.75017ZM24.7073 4.434C24.7073 4.76194 24.6391 4.99652 24.6002 5.10631C24.5607 5.2178 24.5298 5.26169 24.5486 5.23073L19.078 1.90927C18.744 2.45938 18.3073 3.34537 18.3073 4.434H24.7073ZM24.5619 5.20861C24.6634 5.03835 24.6506 5.1061 24.4894 5.25062C24.3329 5.39094 23.7711 5.834 22.8573 5.834V-0.566001C21.6195 -0.566001 20.7217 0.0330632 20.2172 0.485377C19.708 0.941896 19.3352 1.47765 19.0647 1.93139L24.5619 5.20861ZM22.8573 5.834C22.5775 5.834 22.3695 5.77867 22.2542 5.7381C22.1415 5.69846 22.0946 5.66514 22.1171 5.67942L25.5415 0.272578C24.8998 -0.133793 23.9763 -0.566001 22.8573 -0.566001V5.834ZM22.1933 5.72621L29.8793 10.2982L33.1513 4.79779L25.4653 0.22579L22.1933 5.72621Z" fill="white" mask="url(#path-1-outside-1_1805_26345)"/>
</svg>
