<svg width="32" height="32" viewBox="0 0 32 32" fill="none" xmlns="http://www.w3.org/2000/svg">
<path fill-rule="evenodd" clip-rule="evenodd" d="M16 29C23.1797 29 29 23.1797 29 16C29 8.8203 23.1797 3 16 3C8.8203 3 3 8.8203 3 16C3 23.1797 8.8203 29 16 29ZM17.5909 14.4089C18.4696 15.2876 18.4696 16.7122 17.5909 17.5909C16.7122 18.4696 15.2876 18.4696 14.4089 17.5909C13.5303 16.7122 13.5303 15.2876 14.4089 14.4089C15.2876 13.5303 16.7122 13.5303 17.5909 14.4089ZM13.375 10H18.625C20.4861 10 22 11.5139 22 13.375V18.625C22 20.4861 20.4861 22 18.625 22H13.375C11.5139 22 10 20.4861 10 18.625V13.375C10 11.5139 11.5139 10 13.375 10ZM13 16C13 17.6545 14.3458 19 16 19C17.6542 19 19 17.6545 19 16C19 14.3455 17.6542 13 16 13C14.3458 13 13 14.3455 13 16ZM19 12.625C19 12.8321 19.1679 13 19.375 13C19.5821 13 19.75 12.8321 19.75 12.625C19.75 12.4179 19.5821 12.25 19.375 12.25C19.1679 12.25 19 12.4179 19 12.625Z" fill="#A2A2A2"/>
</svg>
