<svg width="65" height="64" viewBox="0 0 65 64" fill="none" xmlns="http://www.w3.org/2000/svg">
<g clip-path="url(#clip0_1732_16290)">
<path d="M55.0206 0H10.2206C4.91867 0 0.620605 4.29807 0.620605 9.6V54.4C0.620605 59.7019 4.91867 64 10.2206 64H55.0206C60.3225 64 64.6206 59.7019 64.6206 54.4V9.6C64.6206 4.29807 60.3225 0 55.0206 0Z" fill="#F7DF1E"/>
<path d="M41.1206 46.25C42.3706 48.375 44.1206 49.875 46.9956 49.875C49.4956 49.875 51.1206 48.625 51.1206 46.875C51.1206 44.875 49.4956 44.125 46.7456 42.875L45.2456 42.25C40.8706 40.375 37.9956 38.125 37.9956 33.25C37.9956 28.75 41.3706 25.25 46.7456 25.25C50.6206 25.25 53.3706 26.625 55.2456 30.125L50.6206 33.125C49.6206 31.25 48.4956 30.5 46.7456 30.5C44.9956 30.5 43.8706 31.625 43.8706 33.125C43.8706 34.875 44.9956 35.625 47.6206 36.75L49.1206 37.375C54.2456 39.625 57.1206 41.75 57.1206 46.875C57.1206 52.25 52.8706 55.25 47.1206 55.25C41.4956 55.25 37.8706 52.625 36.1206 49.125L41.1206 46.25ZM19.8706 46.75C20.8706 48.375 21.6206 49.875 23.7456 49.875C25.7456 49.875 26.9956 49.125 26.9956 46.125V25.375H32.9956V45.875C32.9956 52.125 29.3706 54.875 23.9956 54.875C19.1206 54.875 16.3706 52.375 14.9956 49.375L19.8706 46.75Z" fill="black"/>
</g>
<defs>
<clipPath id="clip0_1732_16290">
<rect width="64" height="64" fill="white" transform="translate(0.620605)"/>
</clipPath>
</defs>
</svg>
