<svg width="43" height="31" viewBox="0 0 43 31" fill="none" xmlns="http://www.w3.org/2000/svg">
<path d="M26.1206 21.25C27.3706 23.375 29.1206 24.875 31.9956 24.875C34.4956 24.875 36.1206 23.625 36.1206 21.875C36.1206 19.875 34.4956 19.125 31.7456 17.875L30.2456 17.25C25.8706 15.375 22.9956 13.125 22.9956 8.25C22.9956 3.75 26.3706 0.25 31.7456 0.25C35.6206 0.25 38.3706 1.625 40.2456 5.125L35.6206 8.125C34.6206 6.25 33.4956 5.5 31.7456 5.5C29.9956 5.5 28.8706 6.625 28.8706 8.125C28.8706 9.875 29.9956 10.625 32.6206 11.75L34.1206 12.375C39.2456 14.625 42.1206 16.75 42.1206 21.875C42.1206 27.25 37.8706 30.25 32.1206 30.25C26.4956 30.25 22.8706 27.625 21.1206 24.125L26.1206 21.25ZM4.87061 21.75C5.87061 23.375 6.62061 24.875 8.74561 24.875C10.7456 24.875 11.9956 24.125 11.9956 21.125V0.375H17.9956V20.875C17.9956 27.125 14.3706 29.875 8.99561 29.875C4.12061 29.875 1.37061 27.375 -0.00439453 24.375L4.87061 21.75Z" fill="black"/>
</svg>
