<svg xmlns="http://www.w3.org/2000/svg" xml:space="preserve" width="64" height="64" id="moon">
  <circle cx="32" cy="32" r="31.2" fill="#063F66"></circle>
  <path fill="#022730" d="M9.9 9.9c12.2-12.2 32-12.2 44.2 0 12.2 12.2 12.2 32 0 44.2"></path>
  <g fill="#DCF9F6">
    <ellipse cx="17.5" cy="53.9" rx=".3" ry="2.7"></ellipse>
    <ellipse cx="17.5" cy="54" rx="2.7" ry=".3"></ellipse>
  </g>
  <g fill="#DCF9F6">
    <ellipse cx="54.1" cy="19.6" rx=".3" ry="2.7" transform="rotate(44.863 54.077 19.623)"></ellipse>
    <ellipse cx="54.1" cy="19.6" rx=".3" ry="2.7" transform="rotate(135.137 54.076 19.623)"></ellipse>
  </g>
  <g fill="#DCF9F6">
    <ellipse cx="46.6" cy="11.3" rx=".1" ry="1.2"></ellipse>
    <ellipse cx="46.6" cy="11.3" rx="1.2" ry=".1"></ellipse>
  </g>
  <g fill="#DCF9F6">
    <ellipse cx="23.1" cy="13.6" rx=".1" ry="1.3" transform="rotate(-45.292 23.116 13.61)"></ellipse>
    <ellipse cx="23.1" cy="13.6" rx=".1" ry="1.3" transform="rotate(45.292 23.115 13.61)"></ellipse>
  </g>
  <g fill="#DCF9F6">
    <ellipse cx="12.9" cy="46.4" rx=".1" ry="1.3" transform="rotate(-45.146 12.922 46.451)"></ellipse>
    <ellipse cx="12.9" cy="46.4" rx=".1" ry="1.3" transform="rotate(45.146 12.921 46.451)"></ellipse>
  </g>
  <g fill="#DCF9F6">
    <ellipse cx="38.7" cy="10.1" rx=".1" ry=".6" transform="rotate(44.417 38.704 10.132)"></ellipse>
    <ellipse cx="38.7" cy="10.1" rx=".1" ry=".6" transform="rotate(135.583 38.705 10.133)"></ellipse>
  </g>
  <g fill="#DCF9F6">
    <ellipse cx="27.7" cy="56.6" rx=".1" ry=".6" transform="rotate(44.708 27.729 56.64)"></ellipse>
    <ellipse cx="27.7" cy="56.6" rx=".1" ry=".6" transform="rotate(135.292 27.729 56.643)"></ellipse>
  </g>
  <path fill="#DCF9F6" d="M41.5 43.2c-11 0-20-9-20-20 0-3.4.9-6.6 2.4-9.4C16.9 16.9 12 23.9 12 32c0 11 9 20 20 20 7.6 0 14.3-4.3 17.6-10.6-2.4 1.1-5.2 1.8-8.1 1.8z"></path>
  <circle cx="18.1" cy="21.4" r="1.2" fill="#78A8A0"></circle>
  <circle cx="16.4" cy="25.9" r=".2" fill="#78A8A0"></circle>
  <circle cx="26.1" cy="20.4" r="1" fill="#DCF9F6"></circle>
  <circle cx="33" cy="19.9" r=".3" fill="#C3E5E0"></circle>
  <circle cx="35.6" cy="16.5" r=".3" fill="#78A8A0"></circle>
  <circle cx="26" cy="16.7" r=".5" fill="#DCF9F6"></circle>
  <circle cx="30" cy="15" r=".2" fill="#95BFB9"></circle>
  <circle cx="34.6" cy="26.5" r=".8" fill="#C3E5E0"></circle>
  <circle cx="40.6" cy="26" r=".5" fill="#C3E5E0"></circle>
  <circle cx="41.9" cy="20.3" r=".8" fill="#C3E5E0"></circle>
  <circle cx="20.3" cy="37.7" r=".7" fill="#DCF9F6"></circle>
  <circle cx="27.5" cy="34.7" r=".3" fill="#DCF9F6"></circle>
  <circle cx="31" cy="42.2" r="1.2" fill="#DCF9F6"></circle>
  <circle cx="16.4" cy="32.6" r=".8" fill="#78A8A0"></circle>
  <circle cx="34.2" cy="32.1" r=".2" fill="#C3E5E0"></circle>
  <circle cx="43.8" cy="32.5" r=".5" fill="#95BFB9"></circle>
  <circle cx="22.6" cy="43.2" r="1.2" fill="#DCF9F6"></circle>
  <circle cx="25" cy="38.9" r=".4" fill="#DCF9F6"></circle>
  <circle cx="37.4" cy="43.6" r=".4" fill="#C3E5E0"></circle>
  <circle cx="31" cy="46.9" r=".3" fill="#95BFB9"></circle>
  <circle cx="26" cy="46.4" r=".2" fill="#95BFB9"></circle>
  <circle cx="42.4" cy="41.8" r=".8" fill="#95BFB9"></circle>
  <circle cx="36.3" cy="47.7" r=".5" fill="#C3E5E0"></circle>
  <circle cx="31.5" cy="36.9" r=".4" fill="#DCF9F6"></circle>
  <circle cx="45" cy="38.3" r=".8" fill="#95BFB9"></circle>
  <circle cx="17.6" cy="41.2" r=".7" fill="#78A8A0"></circle>
</svg>
