<svg xmlns="http://www.w3.org/2000/svg" width="512" height="512" viewBox="0 0 512 512"><circle cx="256" cy="256.005" r="256" fill="#273554"/><path d="M157.962 348.117l157.042 157.042c93.91-22.155 167.839-96.022 190.088-189.896L357.186 167.355 157.962 348.117z" opacity=".1"/><g fill="#FFF"><path d="M411.388 403.403c-11.517 5.783-25.54 1.136-31.323-10.381 5.783 11.517 1.136 25.54-10.381 31.322 11.517-5.782 25.54-1.135 31.322 10.382-5.782-11.516-1.135-25.539 10.382-31.323zM201.274 424.671c-14.188-7.431-19.667-24.956-12.236-39.145-7.43 14.188-24.956 19.667-39.144 12.236 14.188 7.431 19.667 24.956 12.236 39.145 7.43-14.188 24.955-19.667 39.144-12.236zM122.85 159.022c-12.887 0-23.333-10.447-23.333-23.333 0 12.887-10.447 23.333-23.333 23.333 12.887 0 23.333 10.447 23.333 23.333-.001-12.886 10.446-23.333 23.333-23.333zM447.635 300.895c-6.894 4.274-15.947 2.15-20.222-4.743 4.274 6.894 2.151 15.947-4.742 20.222 6.894-4.274 15.946-2.151 20.221 4.742-4.275-6.894-2.151-15.947 4.743-20.221zM274.04 72.434c-4.622-6.665-2.967-15.815 3.698-20.438-6.665 4.623-15.815 2.967-20.438-3.698 4.623 6.665 2.967 15.815-3.698 20.438 6.665-4.623 15.816-2.967 20.438 3.698zM114.203 321.058c-8.111 0-14.687-6.575-14.687-14.687 0 8.111-6.575 14.687-14.687 14.687 8.111 0 14.687 6.575 14.687 14.687 0-8.112 6.576-14.687 14.687-14.687z"/></g><circle cx="256" cy="256.005" r="134.535" fill="#D1F4FF"/><path d="M297.541 128.016c18.492 23.042 29.563 52.295 29.563 84.139 0 74.302-60.233 134.536-134.536 134.536a134.407 134.407 0 0 1-41.541-6.547c24.657 30.723 62.514 50.397 104.973 50.397 74.302 0 134.535-60.233 134.535-134.536 0-59.803-39.024-110.484-92.994-127.989z" opacity=".1"/><circle cx="265.67" cy="237.696" r="25.542" fill="#A6CDDD"/><path d="M271.99 218.775a25.423 25.423 0 0 1 15.017 4.886c-4.567-6.93-12.416-11.506-21.337-11.506-14.106 0-25.541 11.435-25.541 25.541 0 8.492 4.147 16.012 10.524 20.656a25.417 25.417 0 0 1-4.205-14.035c.001-14.106 11.436-25.542 25.542-25.542z" opacity=".1"/><circle cx="326.932" cy="194.739" r="17.416" fill="#A6CDDD"/><path d="M331.241 181.837c3.828 0 7.365 1.238 10.239 3.332-3.114-4.725-8.466-7.846-14.549-7.846-9.618 0-17.416 7.797-17.416 17.416 0 5.791 2.828 10.918 7.177 14.084a17.325 17.325 0 0 1-2.867-9.57c0-9.618 7.798-17.416 17.416-17.416z" opacity=".1"/><circle cx="275.559" cy="147.011" r="11.322" fill="#A6CDDD"/><path d="M278.36 138.624c2.489 0 4.788.805 6.657 2.166a11.31 11.31 0 0 0-9.458-5.101c-6.253 0-11.322 5.069-11.322 11.322 0 3.764 1.839 7.098 4.666 9.156a11.259 11.259 0 0 1-1.864-6.221c0-6.253 5.069-11.322 11.321-11.322z" opacity=".1"/><circle cx="175.152" cy="276.531" r="17.416" fill="#A6CDDD"/><path d="M179.461 263.63c3.828 0 7.365 1.238 10.24 3.331-3.115-4.725-8.466-7.846-14.549-7.846-9.619 0-17.416 7.797-17.416 17.416 0 5.79 2.828 10.918 7.176 14.084a17.322 17.322 0 0 1-2.867-9.569c0-9.619 7.798-17.416 17.416-17.416z" opacity=".1"/><circle cx="236.076" cy="319.117" r="17.416" fill="#A6CDDD"/><path d="M240.385 306.216c3.828 0 7.365 1.238 10.24 3.332-3.115-4.726-8.466-7.847-14.549-7.847-9.619 0-17.416 7.798-17.416 17.416 0 5.791 2.829 10.918 7.176 14.084a17.33 17.33 0 0 1-2.867-9.569c0-9.618 7.798-17.416 17.416-17.416z" opacity=".1"/><circle cx="318.362" cy="330.701" r="17.416" fill="#A6CDDD"/><path d="M322.672 317.8c3.827 0 7.364 1.238 10.239 3.331-3.114-4.725-8.466-7.846-14.549-7.846-9.619 0-17.416 7.798-17.416 17.416 0 5.79 2.828 10.918 7.176 14.084a17.33 17.33 0 0 1-2.866-9.569c0-9.619 7.797-17.416 17.416-17.416z" opacity=".1"/><circle cx="352.065" cy="257.873" r="9.967" fill="#A6CDDD"/><path d="M354.531 250.489a9.91 9.91 0 0 1 5.86 1.907 9.954 9.954 0 0 0-8.326-4.49c-5.505 0-9.968 4.462-9.968 9.968a9.956 9.956 0 0 0 4.107 8.061 9.921 9.921 0 0 1-1.641-5.478c.001-5.506 4.463-9.968 9.968-9.968z" opacity=".1"/><circle cx="202.535" cy="177.323" r="9.968" fill="#A6CDDD"/><path d="M205.001 169.939c2.191 0 4.215.708 5.861 1.907a9.957 9.957 0 0 0-8.327-4.491c-5.504 0-9.967 4.463-9.967 9.968a9.953 9.953 0 0 0 4.107 8.061 9.92 9.92 0 0 1-1.641-5.477c0-5.505 4.463-9.968 9.967-9.968z" opacity=".1"/><circle cx="148.147" cy="205.695" r="5.235" fill="#A6CDDD"/><path d="M149.442 201.816a5.21 5.21 0 0 1 3.078 1.001 5.235 5.235 0 1 0-7.452 7.11 5.212 5.212 0 0 1-.862-2.876 5.237 5.237 0 0 1 5.236-5.235z" opacity=".1"/><circle cx="378.069" cy="288.712" r="5.235" fill="#A6CDDD"/><path d="M379.364 284.834c1.15 0 2.214.372 3.078 1.001a5.234 5.234 0 1 0-7.451 7.11 5.235 5.235 0 0 1 4.373-8.111z" opacity=".1"/><circle cx="372.833" cy="221.3" r="5.235" fill="#A6CDDD"/><path d="M374.129 217.422c1.15 0 2.214.372 3.078 1.001a5.235 5.235 0 1 0-7.451 7.111 5.235 5.235 0 0 1 4.373-8.112z" opacity=".1"/><circle cx="169.917" cy="321.559" r="5.235" fill="#A6CDDD"/><path d="M171.212 317.681a5.21 5.21 0 0 1 3.078 1.001 5.235 5.235 0 1 0-7.452 7.11 5.235 5.235 0 0 1 4.374-8.111z" opacity=".1"/><circle cx="218.66" cy="357.973" r="5.235" fill="#A6CDDD"/><path d="M219.955 354.095a5.21 5.21 0 0 1 3.078 1.001 5.235 5.235 0 1 0-7.452 7.11 5.236 5.236 0 0 1 4.374-8.111z" opacity=".1"/></svg>