<svg width="71" height="64" viewBox="0 0 71 64" fill="none" xmlns="http://www.w3.org/2000/svg">
<path d="M35.3103 37.9777C38.7518 37.9777 41.5416 35.1438 41.5416 31.648C41.5416 28.1522 38.7518 25.3184 35.3103 25.3184C31.8689 25.3184 29.0791 28.1522 29.0791 31.648C29.0791 35.1438 31.8689 37.9777 35.3103 37.9777Z" fill="#54C0DE"/>
<path d="M35.3103 56.044C40.3745 61.0429 45.3693 64 49.3929 64C50.7109 64 51.9596 63.7184 53.0002 63.0847C56.6075 60.9725 57.9256 55.692 56.6769 48.1584C56.4688 46.8207 56.1913 45.4829 55.8445 44.0748C57.2319 43.6524 58.4806 43.2299 59.7293 42.8075C66.7359 40.0616 70.6207 36.2596 70.6207 32.1056C70.6207 27.8812 66.7359 24.0792 59.7293 21.4037C58.4806 20.9109 57.2319 20.4884 55.8445 20.1364C56.1913 18.7283 56.4688 17.3905 56.6769 16.0528C57.8562 8.37844 56.5382 3.0275 52.9308 0.915292C51.8903 0.281628 50.6416 0 49.3235 0C45.3693 0 40.3051 2.9571 35.241 7.95599C30.2462 2.9571 25.2514 0 21.2278 0C19.9098 0 18.6611 0.281628 17.6205 0.915292C14.0131 3.0275 12.6951 8.30803 13.9438 15.8416C14.1519 17.1793 14.4294 18.5171 14.7762 19.9252C13.3888 20.3476 12.1401 20.7701 10.8914 21.1925C3.88483 23.9384 0 27.7404 0 31.8944C0 36.1188 3.88483 39.9208 10.8914 42.5963C12.1401 43.0891 13.3888 43.5116 14.7762 43.8636C14.4294 45.2717 14.1519 46.6095 13.9438 47.9472C12.7644 55.4807 14.0825 60.8317 17.6205 62.8735C18.6611 63.5072 19.9098 63.7888 21.2278 63.7888C25.2514 63.9296 30.2462 60.9725 35.3103 56.044ZM31.4255 46.5391C32.6742 46.6095 33.9923 46.6095 35.3103 46.6095C36.6284 46.6095 37.9465 46.6095 39.1952 46.5391C37.9465 48.2288 36.6284 49.7778 35.3103 51.2563C33.9923 49.7778 32.6742 48.2288 31.4255 46.5391ZM22.8234 39.2871C23.5171 40.484 24.1415 41.6106 24.9045 42.7371C22.754 42.4554 20.7422 42.1034 18.7998 41.681C19.4242 39.78 20.1179 37.8086 20.9503 35.8372C21.5053 36.9637 22.1297 38.1606 22.8234 39.2871ZM18.7998 22.319C20.7422 21.8966 22.754 21.5446 24.9045 21.2629C24.2108 22.3894 23.5171 23.516 22.8234 24.7129C22.1297 25.9098 21.5053 27.0363 20.9503 28.2332C20.0485 26.1914 19.3548 24.22 18.7998 22.319ZM22.6153 31.9648C23.5171 30.0638 24.4883 28.1628 25.5983 26.2618C26.6388 24.4312 27.8182 22.6007 28.9975 20.7701C31.0787 20.6293 33.1598 20.5589 35.3103 20.5589C37.5302 20.5589 39.6114 20.6293 41.6232 20.7701C42.8719 22.6007 43.9818 24.4312 45.0224 26.2618C46.1324 28.1628 47.1036 30.0638 48.0054 31.9648C47.1036 33.8658 46.1324 35.7668 45.0224 37.6678C43.9818 39.4983 42.8025 41.3289 41.6232 43.1595C39.542 43.3003 37.4609 43.3707 35.3103 43.3707C33.0904 43.3707 31.0093 43.3003 28.9975 43.1595C27.7488 41.3289 26.6388 39.4983 25.5983 37.6678C24.4883 35.7668 23.5171 33.8658 22.6153 31.9648ZM49.7397 28.1628L47.8667 24.6425C47.173 23.4455 46.5486 22.319 45.7855 21.1925C47.936 21.4741 49.9478 21.8262 51.8903 22.2486C51.2659 24.22 50.5722 26.1914 49.7397 28.1628ZM49.7397 35.7668C50.5722 37.7382 51.2659 39.7096 51.8903 41.6106C49.9478 42.033 47.936 42.385 45.7855 42.6667C46.4792 41.5402 47.173 40.4136 47.8667 39.2167C48.491 38.1606 49.1154 36.9637 49.7397 35.7668ZM51.3353 60.198C50.7803 60.5501 50.0866 60.6909 49.3235 60.6909C45.9243 60.6909 41.6926 57.8746 37.5302 53.6502C39.542 51.4675 41.4845 49.0033 43.4269 46.2574C46.6873 45.9758 49.8091 45.4829 52.7227 44.7789C53.0696 46.0462 53.2777 47.3135 53.4858 48.5809C54.457 54.5655 53.6939 58.8603 51.3353 60.198ZM54.9426 23.0935C62.7123 25.3465 67.3602 28.7965 67.3602 31.9648C67.3602 34.7107 64.1691 37.4565 58.55 39.6392C57.44 40.0616 56.1913 40.484 54.9426 40.8361C54.0408 37.9494 52.9308 34.9923 51.5434 31.9648C52.9308 28.9373 54.1102 25.9802 54.9426 23.0935ZM49.3929 3.23872C50.156 3.23872 50.7803 3.37954 51.4046 3.73157C53.6939 5.06931 54.5264 9.29373 53.5552 15.3487C53.3471 16.5457 53.0696 17.813 52.7921 19.1507C49.8785 18.5171 46.7567 18.0242 43.4962 17.6722C41.6232 14.9263 39.6114 12.462 37.5996 10.2794C41.7619 6.12541 45.9936 3.23872 49.3929 3.23872ZM39.1952 17.3905C37.9465 17.3201 36.6284 17.3201 35.3103 17.3201C33.9923 17.3201 32.6742 17.3201 31.4255 17.3905C32.6742 15.7008 33.9923 14.1518 35.3103 12.6733C36.6284 14.1518 37.9465 15.7712 39.1952 17.3905ZM19.2854 3.73157C19.8404 3.37954 20.5341 3.23872 21.2972 3.23872C24.6964 3.23872 28.9281 6.05501 33.0904 10.2794C31.0787 12.462 29.1362 14.9263 27.1938 17.6722C23.9333 17.9538 20.8116 18.4466 17.898 19.1507C17.5511 17.8834 17.343 16.6161 17.1349 15.3487C16.1637 9.36414 16.9268 5.13971 19.2854 3.73157ZM15.6781 40.8361C7.90841 38.5831 3.26048 35.1331 3.26048 31.9648C3.26048 29.2189 6.45159 26.473 12.0707 24.2904C13.1807 23.868 14.4294 23.4455 15.6781 23.0935C16.5799 25.9802 17.6899 28.9373 19.0773 31.9648C17.6899 34.9923 16.5105 38.0198 15.6781 40.8361ZM17.1349 48.5809C17.343 47.3839 17.6205 46.1166 17.898 44.7789C20.8116 45.4125 23.9333 45.9054 27.1938 46.2574C29.0669 49.0033 31.0787 51.4675 33.0904 53.6502C28.9281 57.8042 24.6964 60.6909 21.2972 60.6909C20.5341 60.6909 19.9098 60.5501 19.2854 60.198C16.9268 58.8603 16.1637 54.5655 17.1349 48.5809Z" fill="#54C0DE"/>
</svg>
