<svg width="512" height="512" viewBox="0 0 512 512" fill="none" xmlns="http://www.w3.org/2000/svg">
<g clip-path="url(#clip0_1747_16327)">
<path d="M256 512C397.385 512 512 397.385 512 256C512 114.615 397.385 0 256 0C114.615 0 0 114.615 0 256C0 397.385 114.615 512 256 512Z" fill="#72CEE5"/>
<path opacity="0.1" d="M511.286 275.187L372.503 136.405L362.113 151.417L329.069 118.373L175.421 333.895L128.991 355.456L284.004 510.468C405.938 497.2 502.16 398.321 511.286 275.187Z" fill="black"/>
<path d="M208.803 151.418C208.803 151.418 223.253 120.792 216.197 98.2129L248.787 139.698C248.787 139.698 277.639 114.61 277.639 103.948L281.402 142.208C281.402 142.208 302.1 122.608 329.07 118.374C325.15 138.601 324.052 158.515 324.052 158.515L372.503 136.406L359.175 184.23L406.842 176.86L366.701 209.945L425.658 224.37L381.754 255.417L416.284 285.802L379.245 293.99C379.245 293.99 401.197 341.03 401.197 353.574C401.197 353.574 354.47 343.852 348.826 338.208C353.217 352.947 363.807 393.088 363.807 393.088L323.423 369.254L302.726 400.614L268.857 373.488L246.905 413.785L217.74 371.606L177.285 398.105L183.635 345.969L128.99 355.455L152.824 315.941L97.0028 307.16L137.144 272.037L86.3408 257.141L141.534 230.015C141.534 230.015 112.683 208.69 108.292 187.365C122.091 194.264 166.622 179.839 166.622 179.839C166.622 179.839 151.491 141.188 161.134 122.921C178.305 134.838 208.803 151.418 208.803 151.418Z" fill="#FFA03C"/>
<path d="M258.316 362.4C316.577 362.4 363.807 315.17 363.807 256.909C363.807 198.648 316.577 151.418 258.316 151.418C200.055 151.418 152.825 198.648 152.825 256.909C152.825 315.17 200.055 362.4 258.316 362.4Z" fill="#FFE13C"/>
<path opacity="0.1" d="M324.028 174.389C330.63 188.17 334.329 203.605 334.329 219.906C334.329 278.167 287.1 325.398 228.838 325.398C203.99 325.398 181.153 316.802 163.126 302.428C180.12 337.903 216.356 362.403 258.316 362.403C316.578 362.403 363.807 315.173 363.807 256.911C363.808 223.497 348.27 193.717 324.028 174.389Z" fill="black"/>
<path d="M109.692 401.498C109.636 409.364 103.213 415.696 95.3467 415.64C103.213 415.697 109.545 422.119 109.489 429.985C109.545 422.119 115.968 415.788 123.834 415.843C115.968 415.787 109.636 409.364 109.692 401.498ZM429.672 313.314C429.616 321.18 423.193 327.512 415.327 327.457C423.193 327.513 429.525 333.935 429.469 341.801C429.526 333.935 435.948 327.604 443.814 327.659C435.947 327.603 429.616 321.18 429.672 313.314ZM328.237 83.9707C328.181 91.8367 321.758 98.1687 313.892 98.1127C321.758 98.1687 328.09 104.591 328.034 112.457C328.091 104.591 334.513 98.2587 342.379 98.3147C334.513 98.2597 328.182 91.8367 328.237 83.9707Z" fill="white"/>
</g>
<defs>
<clipPath id="clip0_1747_16327">
<rect width="512" height="512" fill="white"/>
</clipPath>
</defs>
</svg>
