<svg width="65" height="64" viewBox="0 0 65 64" fill="none" xmlns="http://www.w3.org/2000/svg">
<g clip-path="url(#clip0_1732_16293)">
<path d="M32.6206 12.8047C24.0873 12.8047 18.7539 17.07 16.6206 25.6007C19.8206 21.3354 23.5539 19.7367 27.8206 20.802C30.2553 21.41 31.9953 23.1767 33.9219 25.1314C37.0579 28.314 40.6886 31.9994 48.6206 31.9994C57.1539 31.9994 62.4873 27.734 64.6206 19.202C61.4206 23.4674 57.6873 25.0674 53.4206 24.002C50.9873 23.394 49.2473 21.6274 47.3206 19.6727C44.1833 16.4887 40.5513 12.8047 32.6206 12.8047ZM16.6206 31.9994C8.08727 31.9994 2.75394 36.2647 0.620605 44.7967C3.82061 40.5314 7.55394 38.9314 11.8206 39.998C14.2539 40.6074 15.9939 42.3727 17.9206 44.326C21.0579 47.51 24.6899 51.1954 32.6206 51.1954C41.1539 51.1954 46.4873 46.93 48.6206 38.398C45.4206 42.6634 41.6873 44.2634 37.4206 43.1967C34.9859 42.5887 33.2459 40.822 31.3193 38.8687C28.1833 35.6847 24.5526 31.9994 16.6206 31.9994Z" fill="#00ACC1"/>
</g>
<defs>
<clipPath id="clip0_1732_16293">
<rect width="64" height="64" fill="white" transform="translate(0.620605)"/>
</clipPath>
</defs>
</svg>
