<svg width="32" height="32" viewBox="0 0 32 32" fill="none" xmlns="http://www.w3.org/2000/svg">
<g clip-path="url(#clip0_1016_18754)">
<path fill-rule="evenodd" clip-rule="evenodd" d="M28.9998 15.9999C28.9998 23.1795 23.1795 28.9998 15.9999 28.9998C8.82025 28.9998 3 23.1795 3 15.9999C3 8.82025 8.82025 3 15.9999 3C23.1795 3 28.9998 8.82025 28.9998 15.9999ZM22.1783 12.8311C22.7944 12.7584 23.396 12.5937 23.9631 12.3424C23.5461 12.9666 23.021 13.5112 22.4124 13.9507C22.4184 14.0837 22.4214 14.2178 22.4214 14.3525C22.4214 18.4591 19.2958 23.1939 13.5802 23.1939C11.8915 23.1957 10.2379 22.711 8.81738 21.7977C9.06001 21.8266 9.30797 21.8412 9.55824 21.8412C10.9576 21.8435 12.317 21.375 13.4178 20.5111C12.0577 20.4858 10.9104 19.5874 10.5151 18.3532C10.7046 18.3893 10.8991 18.4085 11.0997 18.4085C11.3762 18.4089 11.6515 18.3722 11.9182 18.2994C10.497 18.0141 9.42546 16.7584 9.42546 15.2528L9.42569 15.2134C9.85691 15.4538 10.3395 15.5872 10.833 15.6025C9.9997 15.0454 9.45072 14.0939 9.45072 13.0161C9.44992 12.4672 9.59516 11.9279 9.87155 11.4537C11.4042 13.3342 13.694 14.5712 16.2765 14.7008C16.2232 14.4732 16.1956 14.2361 16.1956 13.9926C16.1956 12.2768 17.5872 10.8853 19.3029 10.8853C19.7281 10.8847 20.1489 10.9715 20.5391 11.1402C20.9294 11.3089 21.2808 11.556 21.5716 11.8662C22.2675 11.7292 22.9349 11.4743 23.5449 11.1124C23.313 11.8321 22.8273 12.443 22.1783 12.8311Z" fill="#A2A2A2"/>
</g>
<defs>
<clipPath id="clip0_1016_18754">
<rect width="26" height="26" fill="white" transform="translate(3 3)"/>
</clipPath>
</defs>
</svg>
