<svg width="32" height="32" viewBox="0 0 32 32" fill="none" xmlns="http://www.w3.org/2000/svg">
<path fill-rule="evenodd" clip-rule="evenodd" d="M10.1661 16.0872C9.7267 15.2891 9.50051 14.5416 9.50051 13.8448C9.50051 13.0557 9.7124 12.3914 10.1245 11.8117C10.2536 11.6303 10.3985 11.4606 10.5574 11.3047L10.6198 11.2397L10.6289 11.228L10.6172 11.241L10.6354 11.2228C10.7545 11.0924 10.8989 10.9877 11.0598 10.9151C11.2208 10.8424 11.3948 10.8034 11.5714 10.8003C11.8378 10.8003 12.0198 10.8042 12.1784 10.8107C12.2122 10.812 12.2122 10.812 12.2395 10.8107C12.584 10.8107 12.766 10.9264 12.9584 11.3151L12.9805 11.3632L13.0065 11.4204L13.4316 12.4187C13.767 13.2078 13.9282 13.5822 13.9646 13.6537C14.0946 13.902 14.1024 14.0996 13.9906 14.3154L13.9451 14.4038L13.8957 14.5013C13.8697 14.5507 13.845 14.5923 13.8203 14.6339C13.7735 14.708 13.7215 14.7769 13.6578 14.8484L13.5005 15.0317C13.3705 15.1851 13.3068 15.2566 13.2535 15.3138L12.9441 15.6388L13.1859 16.017C13.6318 16.719 14.1726 17.3651 14.7784 17.8877C15.2802 18.3206 15.7923 18.6677 16.3396 18.9498C16.5372 19.0512 16.9298 19.228 17.2366 19.358L17.6071 19.5166L17.8762 19.2137C18.2402 18.8042 18.6172 18.3544 18.755 18.1542C18.976 17.8318 19.1632 17.7876 19.6207 17.9501C19.8287 18.0229 20.8999 18.5169 21.7735 18.9394L22.0283 19.0603C22.1232 19.1045 22.1791 19.1331 22.2298 19.1643C22.3338 19.2254 22.3897 19.2774 22.4313 19.3463C22.5587 19.5504 22.5132 20.2276 22.2623 20.9101C22.0283 21.5471 20.8934 22.3167 20.0393 22.4402C19.2854 22.5481 18.6497 22.513 18.0062 22.3154C17.3964 22.1332 16.7967 21.9189 16.2096 21.6732C15.1437 21.2286 14.1089 20.55 13.1118 19.6544C12.3181 18.9397 11.6002 18.1451 10.9695 17.2832C10.9139 17.2099 10.8589 17.1363 10.8044 17.0622C10.567 16.7543 10.3528 16.4283 10.1661 16.0872ZM6.1752 25.8227L10.1817 24.6202C12.3248 26.0669 14.9301 26.6633 17.4891 26.293C20.0482 25.9228 22.3776 24.6125 24.0229 22.6178C25.6682 20.6231 26.5114 18.087 26.388 15.5042C26.2646 12.9214 25.1835 10.4773 23.3555 8.64845C21.5276 6.81965 19.0839 5.7374 16.5012 5.61281C13.9185 5.48823 11.382 6.33025 9.38649 7.97462C7.39099 9.61899 6.07964 11.9478 5.70823 14.5067C5.33683 17.0656 5.932 19.6711 7.37767 21.8149L6.1765 25.8227H6.1752ZM4.55674 22.1724C3.53231 20.2766 2.99745 18.155 3.00068 16.0001C3.00068 8.82044 8.82063 3.00049 16.0003 3.00049C23.1801 3.00049 29 8.82044 29 16.0001C29 23.1799 23.1801 28.9998 16.0003 28.9998C13.8445 29.0032 11.7219 28.4678 9.8255 27.4424L4.84143 28.9374C4.59405 29.0117 4.33116 29.0177 4.08067 28.9546C3.83019 28.8915 3.60148 28.7617 3.41883 28.5791C3.23618 28.3964 3.10641 28.1677 3.04332 27.9172C2.98022 27.6667 2.98615 27.4038 3.06048 27.1565L4.55544 22.1724H4.55674Z" fill="#A2A2A2"/>
</svg>
